<svg id="Layer_3" data-name="Layer 3" xmlns="http://www.w3.org/2000/svg" viewBox="0 0 42 56"><defs><style>.cls-2{fill:#ffb49e}.cls-3{fill:#fff}.cls-4{fill:#00aef8}.cls-5{fill:#4b4b4b}.cls-6{fill:#78c701}.cls-7{fill:#f14848}.cls-9{fill:#2b70c8}.cls-10{fill:#ff9c86}</style></defs><rect x=".16" y="12.49" width="41.69" height="18.79" rx="9.4" ry="9.4" fill="#cd81ff"/><path class="cls-2" d="M36.91 24.26a3.36 3.36 0 0 1 3.36 3.36v6.26a3.53 3.53 0 0 1-3.53 3.53h-3.2v-9.79a3.36 3.36 0 0 1 3.36-3.36z" transform="rotate(20.85 36.915 30.829)"/><path class="cls-2" d="M1.89 24.24h3.2a3.53 3.53 0 0 1 3.53 3.53V34a3.36 3.36 0 0 1-3.36 3.36A3.36 3.36 0 0 1 1.89 34v-9.76z" transform="rotate(159.15 5.248 30.813)"/><path class="cls-2" d="M36.37 18.81v18.24a13.75 13.75 0 0 1-1 5.08 1.08 1.08 0 0 1-.08.19A13.87 13.87 0 0 1 31 48a14.15 14.15 0 0 1-2.6 1.59 13.8 13.8 0 0 1-5.88 1.31h-2.69A13.76 13.76 0 0 1 14 49.61a14.19 14.19 0 0 1-2.49-1.5 13.86 13.86 0 0 1-4.37-5.58 3.33 3.33 0 0 1-.16-.4A13.45 13.45 0 0 1 6 37V18.81A8.85 8.85 0 0 1 14.81 10h12.7a8.86 8.86 0 0 1 8.86 8.81z"/><path class="cls-3" d="M29.64 35.6H13.46A4.5 4.5 0 0 0 9 40.1v.23a4.51 4.51 0 0 0 4.51 4.51h.48a5.24 5.24 0 0 1 3.82 1.79 5.16 5.16 0 0 0 7.58 0 5.24 5.24 0 0 1 3.82-1.79h.48a4.51 4.51 0 0 0 4.51-4.51v-.23a4.5 4.5 0 0 0-4.56-4.5z"/><path class="cls-4" d="M21.86 27.64v-4.09a5.39 5.39 0 0 1 5.4-5.39 5.39 5.39 0 0 1 5.4 5.39v4.07A1.68 1.68 0 0 1 31 29.3h-7.48a1.66 1.66 0 0 1-1.66-1.66zM9.58 27.64v-4.09A5.39 5.39 0 0 1 15 18.16a5.39 5.39 0 0 1 5.4 5.39v4.07a1.68 1.68 0 0 1-1.68 1.68h-7.48a1.66 1.66 0 0 1-1.66-1.66z"/><rect class="cls-3" x="11" y="21.9" width="7.97" height="11.03" rx="3.98" ry="3.98"/><rect class="cls-5" x="14.29" y="24.92" width="3.2" height="5.23" rx="1.6" ry="1.6"/><rect class="cls-3" x="23.36" y="21.9" width="7.97" height="11.03" rx="3.98" ry="3.98" transform="rotate(-180 27.34 27.415)"/><rect class="cls-5" x="24.79" y="24.92" width="3.2" height="5.23" rx="1.6" ry="1.6" transform="rotate(180 26.39 27.535)"/><circle class="cls-6" cx="21.28" cy="33.32" r="4.84"/><path class="cls-7" d="M28.8 7.49a.89.89 0 0 0-1.26 0l-.49.51a1 1 0 0 1-.7.29H15.54a1.06 1.06 0 0 1-.75-.29l-.46-.46a.9.9 0 0 0-1.27 0 .89.89 0 0 0 0 1.26l1 1a.74.74 0 0 0 .56.26h12.51a.84.84 0 0 0 .66-.26l1-1a.89.89 0 0 0 .01-1.31z"/><path class="cls-7" d="M17.76 0h6.4a2 2 0 0 1 2 2v6.29h-10.4V2a2 2 0 0 1 2-2z"/><path class="cls-6" d="M15.74 6.04h10.41v2.2H15.74z"/><circle cx="22.92" cy="31.99" r="1.36" fill="#ace656"/><path class="cls-9" d="M11.16 20.4a1.5 1.5 0 0 1-1.06-2.54 6.89 6.89 0 0 1 9.53-.21 1.49 1.49 0 0 1-2 2.2 3.92 3.92 0 0 0-5.41.11 1.49 1.49 0 0 1-1.06.44zM23.57 20.65a1.49 1.49 0 0 1-1.06-2.54A6.89 6.89 0 0 1 32 17.9a1.49 1.49 0 0 1-2 2.2 3.92 3.92 0 0 0-5.41.11 1.49 1.49 0 0 1-1.02.44z"/><path class="cls-7" d="M21.43 44.43a10.59 10.59 0 0 1-7.18-2.8A2.48 2.48 0 1 1 17.61 38a5.66 5.66 0 0 0 7.81-.17 2.48 2.48 0 1 1 3.51 3.51 10.55 10.55 0 0 1-7.5 3.09z"/><circle class="cls-10" cx="8.81" cy="33.02" r="2.4"/><circle class="cls-10" cx="33.72" cy="33.02" r="2.4"/><path class="cls-3" d="M21.43 42.53a8.6 8.6 0 0 1-4.6-1.32.5.5 0 0 1 .53-.84 7.75 7.75 0 0 0 8.47-.23.5.5 0 0 1 .69.12.49.49 0 0 1-.12.69 8.51 8.51 0 0 1-4.97 1.58z"/></svg>