<svg width="42" height="56" viewBox="0 0 42 56" version="1.1" xmlns="http://www.w3.org/2000/svg"><g stroke="none" stroke-width="1" fill="none" fill-rule="evenodd"><g><path d="M17.377 7.152l-3.456-3L9.694.5A2.033 2.033 0 0 0 7.831.072a2.06 2.06 0 0 0-1.403 1.312c-1.022 2.91-2.086 8.055-.387 14.68l16.13-4.462-4.794-4.45z" fill="#E3A15F" fill-rule="nonzero"/><path d="M36.33 15.352c-.05.235-.112.47-.174.709l-.63-.086-1.998-.282-15.292-2.785 6.572-5.756L32.498.5a2.026 2.026 0 0 1 1.828-.437c.643.162 1.168.63 1.408 1.255.012.022.02.044.028.067.994 2.804 2.02 7.687.569 13.968z" fill="#E3A15F" fill-rule="nonzero"/><path d="M36.33 15.352l-.588 2.093-1.091-.797-1.123-.955-.843-.717-6.058-5.145c.16-.051 3.87-3.525 7.025-6.536l2.09-1.958c.012.021.02.044.027.067.987 2.784 2.013 7.667.562 13.948z" fill="#FECD92" fill-rule="nonzero"/><path d="M33.424 14.4l-.74.576-6.057-5.145c.16-.051 3.87-3.525 7.025-6.536a25.94 25.94 0 0 1-.228 11.106z" fill="#938579" fill-rule="nonzero"/><path d="M5.866 15.352l.562 2.268 1.118-.972 1.127-.955 6.9-5.874c-.197-.067-5.778-5.334-9.118-8.502a.343.343 0 0 0-.027.067c-.983 2.804-2.01 7.687-.562 13.968z" fill="#FECD92" fill-rule="nonzero"/><path d="M8.773 14.4l.743.576 6.057-5.145c-.158-.051-3.87-3.525-7.024-6.536a25.928 25.928 0 0 0 .224 11.106z" fill="#938579" fill-rule="nonzero"/><path d="M39.24 28.287v.36c0 1.026-.13 2.048-.39 3.04a.562.562 0 0 0-.026.082 10.83 10.83 0 0 1-1.857 3.754 9.153 9.153 0 0 1-2.84 2.465 7.953 7.953 0 0 1-3.175.98 6.658 6.658 0 0 1-.71.037H11.867c-.237 0-.474-.012-.71-.036a7.922 7.922 0 0 1-3.093-.941l-.082-.044a9.228 9.228 0 0 1-2.84-2.468.258.258 0 0 1-.06-.079 10.77 10.77 0 0 1-1.776-3.679c0-.032-.018-.061-.025-.086a11.839 11.839 0 0 1-.387-3.022v-.359c0-.59.021-1.178.064-1.753 0-.176.025-.36.042-.518a23.073 23.073 0 0 1 2.308-8.177 21.431 21.431 0 0 1 1.893-3.09c3.317-4.541 8.288-7.415 13.856-7.415 5.022 0 9.567 2.346 12.855 6.136.355.41.71.834 1.016 1.276a21.007 21.007 0 0 1 1.992 3.298 23.057 23.057 0 0 1 2.216 7.99c0 .166.028.33.039.5.042.575.064 1.178.064 1.75z" fill="#CB791D" fill-rule="nonzero"/><path d="M19.332 29.627l1.672-1.388 1.664 1.267v-7.361c0-4.9 3.462-8.87 7.736-8.87a6.935 6.935 0 0 1 3.538.962c.498.292.961.64 1.379 1.04a21.394 21.394 0 0 1 2.04 3.363l4 6.17c.482.716.38 1.677-.24 2.275-.315.29-.752.406-1.167.308l1.862 3.706c.385.773.15 1.714-.553 2.212a1.302 1.302 0 0 1-1.884-.513l.844 3.205a1.673 1.673 0 0 1-.946 2.018c-.38.112-.789.057-1.125-.153a1.403 1.403 0 0 1-.639-.946l-.083-.318-.207 2.702c-.007.4-.173.78-.46 1.056a1.474 1.474 0 0 1-1.072.41 1.535 1.535 0 0 1-1.287-1.502l-.44 1.534c-.08.387-.321.721-.661.92-.34.197-.748.24-1.121.117a1.659 1.659 0 0 1-.853-.878 26.72 26.72 0 0 1-20.664.013c-.16.375-.455.689-.847.865-.373.123-.78.08-1.12-.118a1.391 1.391 0 0 1-.662-.919l-.44-1.534a1.535 1.535 0 0 1-1.287 1.501 1.474 1.474 0 0 1-1.071-.409 1.495 1.495 0 0 1-.46-1.056l-.208-2.702-.083.318c-.07.392-.302.736-.639.946-.336.21-.746.265-1.125.153a1.673 1.673 0 0 1-.946-2.018l.844-3.205a1.302 1.302 0 0 1-1.884.513A1.754 1.754 0 0 1 .184 31.1l1.862-3.706a1.285 1.285 0 0 1-1.167-.308 1.782 1.782 0 0 1-.24-2.274l4-6.171a21.394 21.394 0 0 1 2.04-3.362c.418-.4.88-.75 1.379-1.04a6.935 6.935 0 0 1 3.538-.964c4.274 0 7.736 3.97 7.736 8.87v7.483z" fill="#E3A15F" fill-rule="nonzero"/><ellipse fill="#E3A15F" cx="21.067" cy="33.85" rx="13.127" ry="12.538"/><path d="M18.704 46.185a13.45 13.45 0 0 1-3.804-1.264l1.824-8.639h8.685l1.823 8.64a13.45 13.45 0 0 1-3.841 1.27c-1.56.136-3.128.134-4.687-.007zM18.683 18.445h4.768v8.002h-4.768z" fill="#CB791D"/><path d="M19.382 22.759v3.313l-1.394 2.35-.898-1.101.58-8.275.887-.415a10.68 10.68 0 0 1 .825 4.128zM22.757 22.759v3.313l1.393 2.35.902-1.113-.58-8.274-.883-.415a10.593 10.593 0 0 0-.832 4.139z" fill="#FECD92" fill-rule="nonzero"/><path d="M25.439 30.516c0 2.44-1.955 4.417-4.366 4.417-2.411 0-4.366-1.977-4.366-4.417 0-1.23 1.111-3.246 2.21-4.946a2.57 2.57 0 0 1 2.156-1.178c.869 0 1.68.443 2.156 1.178 1.084 1.7 2.21 3.717 2.21 4.946z" fill="#FECD92" fill-rule="nonzero"/><path d="M13.696 27.983l.797 1.233c2.61-.155 4.647-2.344 4.645-4.989.008-.192-5.442 3.756-5.442 3.756z" fill="#FECD92" fill-rule="nonzero"/><rect fill="#FECD92" fill-rule="nonzero" x="9.357" y="15.753" width="9.622" height="13.471" rx="4.811"/><rect fill="#FFF" fill-rule="nonzero" x="10.758" y="18.263" width="8.081" height="9.907" rx="4.041"/><path d="M13.518 29.157c.228.035.458.052.689.051h.286c2.17-.127 4.001-1.674 4.513-3.81-.642.34-3.394 2.28-5.488 3.76z" fill="#FECD92" fill-rule="nonzero"/><rect fill="#61361E" fill-rule="nonzero" x="14.095" y="20.66" width="3.247" height="5.369" rx="1.624"/><rect fill="#FECD92" fill-rule="nonzero" transform="rotate(180 27.978 22.492)" x="23.167" y="15.757" width="9.622" height="13.471" rx="4.811"/><rect fill="#FFF" fill-rule="nonzero" x="23.31" y="18.263" width="8.081" height="9.907" rx="4.041"/><path d="M28.628 29.157a4.423 4.423 0 0 1-.689.051h-.286c-2.17-.127-4-1.674-4.513-3.81.642.34 3.394 2.28 5.488 3.76z" fill="#FECD92" fill-rule="nonzero"/><rect fill="#61361E" fill-rule="nonzero" transform="rotate(-180 26.432 23.34)" x="24.808" y="20.656" width="3.247" height="5.369" rx="1.624"/><path d="M21.054 41.41c-2.144 0-3.97-1.575-4.312-3.716a.608.608 0 0 1 .134-.488.593.593 0 0 1 .454-.213h7.447c.175 0 .341.078.455.213a.608.608 0 0 1 .133.488c-.341 2.141-2.168 3.715-4.311 3.716z" fill="#FECD92" fill-rule="nonzero"/><path d="M17.09 30.826h7.911v5.106c0 .43-.169.844-.47 1.149-.301.305-.71.476-1.136.476h-4.698c-.426 0-.835-.171-1.136-.476a1.635 1.635 0 0 1-.47-1.15v-5.105z" fill="#62361B" fill-rule="nonzero"/><path d="M18.697 37.984a2.04 2.04 0 0 1-2.025-2.052v-5.106a.42.42 0 0 1 .418-.423h7.911a.42.42 0 0 1 .307.118c.083.08.13.19.13.305v5.106c0 .547-.215 1.071-.599 1.456-.383.386-.903.6-1.444.596h-4.698z" fill="#62361B" fill-rule="nonzero"/><path d="M21.07 28.601v2.088c0 1.103.883 1.997 1.973 1.997s1.974-.894 1.974-1.997v-.243" fill="#FECD92" fill-rule="nonzero"/><path d="M23.043 33.109c-1.32-.003-2.39-1.085-2.392-2.42V28.6c0-.15.08-.29.21-.366a.414.414 0 0 1 .417 0c.13.076.21.215.21.366v2.088c0 .865.692 1.566 1.547 1.566s1.548-.701 1.548-1.566v-.243a.42.42 0 0 1 .418-.423c.231 0 .418.19.418.423v.243c-.002 1.33-1.062 2.409-2.376 2.42z" fill="#62361B" fill-rule="nonzero"/><path d="M21.038 28.601v2.088a1.986 1.986 0 0 1-1.974 1.997 1.986 1.986 0 0 1-1.974-1.997v-.243" fill="#FECD92" fill-rule="nonzero"/><path d="M19.064 33.109c-1.32-.003-2.39-1.085-2.392-2.42v-.243c0-.151.08-.291.21-.367a.414.414 0 0 1 .417 0c.13.076.21.216.21.367v.243c0 .865.693 1.566 1.548 1.566.855 0 1.548-.701 1.548-1.566V28.6c0-.15.08-.29.209-.366a.414.414 0 0 1 .418 0c.129.076.209.215.209.366v2.088c-.002 1.33-1.063 2.409-2.377 2.42z" fill="#62361B" fill-rule="nonzero"/><path d="M23.117 29.06l-.387.29a2.78 2.78 0 0 1-3.372 0l-.387-.29a1.093 1.093 0 0 1-.43-.87v-.654c0-.601.482-1.088 1.077-1.088h2.833c.285 0 .558.114.76.319.2.204.313.48.312.77v.653c.004.338-.146.658-.406.87z" fill="#62361B" fill-rule="nonzero"/><path d="M21.073 37.487a1.455 1.455 0 0 1 1.333-.882h.004c.386 0 .756.155 1.03.432.272.276.426.65.426 1.04v.784c0 1.495-1.195 2.707-2.671 2.714v.004h-.232c-1.482 0-2.682-1.215-2.682-2.714v-.783a1.481 1.481 0 0 1 .426-1.045 1.447 1.447 0 0 1 1.033-.432c.596 0 1.108.363 1.333.882z" fill="#FB3CAF" fill-rule="nonzero"/></g></g></svg>