<svg id="Layer_3" data-name="Layer 3" xmlns="http://www.w3.org/2000/svg" viewBox="0 0 42 56"><defs><style>.cls-1{fill:#6f4ea1}.cls-2{fill:#7ac625}.cls-3{fill:#5ba51c}.cls-5{fill:#fff}.cls-6{fill:#fec72e}.cls-7{fill:#2d2d2d}.cls-8{fill:#552e90}</style></defs><path class="cls-1" d="M40.54 19.38a19.45 19.45 0 0 1-.54 4.67 20 20 0 0 1-.85 2.65 19.41 19.41 0 0 1-35.94 0 19.29 19.29 0 0 1-1.42-7.32 19.27 19.27 0 0 1 .78-5.46 19.37 19.37 0 0 1 5.52-8.87 20.31 20.31 0 0 1 2.12-1.68 19.44 19.44 0 0 1 21.88 0 21.41 21.41 0 0 1 2.12 1.68 19.67 19.67 0 0 1 4.57 6.25 18.25 18.25 0 0 1 1 2.62 18.92 18.92 0 0 1 .76 5.46z"/><path class="cls-2" d="M39.9 28.41a1.56 1.56 0 0 1 2 1.35 8.28 8.28 0 0 1-16.16 3.09z"/><path class="cls-3" d="M28.61 37.08a1.5 1.5 0 0 1-.47-2.92L38 31a1.5 1.5 0 0 1 .93 2.85L29.07 37a1.47 1.47 0 0 1-.46.08z"/><path class="cls-2" d="M2.18 28.43a1.61 1.61 0 0 0-2.1 1.41 8.28 8.28 0 0 0 16.16 3z"/><path class="cls-3" d="M13.76 37.08a1.49 1.49 0 0 1-.47-.07L3.46 33.8a1.5 1.5 0 1 1 .93-2.8l9.83 3.21a1.5 1.5 0 0 1-.46 2.92z"/><path d="M33.64 22.23v13.43a1.55 1.55 0 0 1 0 .22 17.52 17.52 0 0 1-2.31 8.53 17.3 17.3 0 0 1-1.8 2.59c-.14.17-.28.34-.42.49a16 16 0 0 1-1.72 1.67l-6.11 5.14L15 49.14l-.14-.14-.18-.16a13.72 13.72 0 0 1-1.39-1.36 16.62 16.62 0 0 1-2.24-3.05 17.52 17.52 0 0 1-2.39-8.85V22.23a12.49 12.49 0 1 1 25 0z" fill="#aee560"/><path class="cls-2" d="M33.63 35.88a17.52 17.52 0 0 1-2.31 8.53A17.3 17.3 0 0 1 29.53 47v-6.68a4.33 4.33 0 0 1 3.12-4.15zM8.7 35.88a17.53 17.53 0 0 0 2.3 8.53A16.58 16.58 0 0 0 12.81 47v-6.68a4.34 4.34 0 0 0-3.12-4.15z"/><rect class="cls-5" x="10.76" y="24.75" width="8.15" height="11.28" rx="4.07" ry="4.07"/><rect class="cls-1" x="14.12" y="27.84" width="3.27" height="5.35" rx="1.64" ry="1.64"/><rect class="cls-5" x="23.4" y="24.75" width="8.15" height="11.28" rx="4.07" ry="4.07" transform="rotate(180 27.47 30.39)"/><rect class="cls-1" x="24.86" y="27.84" width="3.27" height="5.35" rx="1.64" ry="1.64" transform="rotate(180 26.495 30.515)"/><path class="cls-1" d="M34.91 29.13L20.87 14.32 8.16 29.45 2.84 17.89 20.87 2.31l17.67 13.06-3.63 13.76z"/><path class="cls-6" d="M24.47 13.26a3.32 3.32 0 0 1-3.32 3.32 3.2 3.2 0 0 1-1.7-.48A3.24 3.24 0 0 1 18 14.4a3.32 3.32 0 1 1 6.43-1.14z"/><rect class="cls-6" x="5.19" y="36.3" width="3.67" height="7.53" rx="1.83" ry="1.83"/><rect class="cls-6" x="33.65" y="36.3" width="3.67" height="7.53" rx="1.83" ry="1.83"/><path class="cls-7" d="M31.32 44.41a18.22 18.22 0 0 1-2.21 3.05 16 16 0 0 1-1.72 1.67l-6.11 5.17-6.42-5.3-.18-.16a13.72 13.72 0 0 1-1.39-1.36 16.62 16.62 0 0 1-2.24-3.05h3.33a1.67 1.67 0 0 1 1.67 1.67 3.36 3.36 0 0 0 3.35 3.35h4.08a3.35 3.35 0 0 0 3.35-3.35 1.68 1.68 0 0 1 1.68-1.67z"/><path class="cls-7" d="M19.4 52.16h3.5v1.69a1.75 1.75 0 0 1-1.75 1.75 1.75 1.75 0 0 1-1.75-1.75v-1.69z"/><path class="cls-3" d="M21.14 42.19a21.12 21.12 0 0 1-6.69-1.1 1 1 0 1 1 .64-1.9 18.93 18.93 0 0 0 11.91.08l.25-.08a1 1 0 1 1 .62 1.9l-.26.08a20.94 20.94 0 0 1-6.47 1.02z"/><path class="cls-8" d="M15.69 16.31a1.29 1.29 0 0 1-.5 1l-12 9.35a20 20 0 0 1-.86-2.65l11.26-8.77a1.32 1.32 0 0 1 1.84.23 1.27 1.27 0 0 1 .26.84zM12.77 12.61a1.31 1.31 0 0 1-1.31 1.31H2.54a19.57 19.57 0 0 1 1-2.62h7.94a1.31 1.31 0 0 1 1.29 1.31zM39.75 13.92h-8.92a1.31 1.31 0 0 1 0-2.62h8a18.25 18.25 0 0 1 .92 2.62zM40 24.05a20 20 0 0 1-.85 2.65l-12-9.35a1.3 1.3 0 0 1-.51-1 1.28 1.28 0 0 1 .28-.8 1.32 1.32 0 0 1 1.84-.23zM34.21 5.05l-5.49 4.27a1.31 1.31 0 0 1-1.84-.23 1.29 1.29 0 0 1-.28-.81 1.26 1.26 0 0 1 .51-1l5-3.89a21.41 21.41 0 0 1 2.1 1.66zM15.69 8.28a1.28 1.28 0 0 1-.27.81 1.31 1.31 0 0 1-1.84.23L8.09 5.05a20.31 20.31 0 0 1 2.12-1.68l5 3.89a1.25 1.25 0 0 1 .48 1.02z"/><path d="M22.7 12.39a1.11 1.11 0 0 1-.32.78l-2.93 2.93A3.24 3.24 0 0 1 18 14.4l2.79-2.79a1.11 1.11 0 0 1 1.55 0 1.13 1.13 0 0 1 .36.78z" opacity=".5" fill="#fff"/><path class="cls-6" d="M23.7 7.77a2.55 2.55 0 0 1-5.1 0c0-2.34 2.55-5.12 2.55-5.12s2.55 3.11 2.55 5.12z"/><path class="cls-7" d="M8.1 23.66h26.59a.79.79 0 0 1 .79.79v.61a3.8 3.8 0 0 1-3.8 3.8H11.11a3.8 3.8 0 0 1-3.8-3.8v-.61a.79.79 0 0 1 .79-.79z"/><path class="cls-2" d="M22.06 38.38a1.09 1.09 0 0 1-1.82 0 7.08 7.08 0 0 1-1.18-3.92v-11a2.09 2.09 0 0 1 2.09-2.09 2.09 2.09 0 0 1 2.09 2.09v11a7.08 7.08 0 0 1-1.18 3.92z"/></svg>