<svg id="Layer_3" data-name="Layer 3" xmlns="http://www.w3.org/2000/svg" viewBox="0 0 42 56"><defs><style>.cls-1{fill:#4b4b4b}.cls-2{fill:#ff9d8a}.cls-3{fill:#ffb5a1}.cls-4{fill:#fff}.cls-5{fill:#777}</style></defs><path class="cls-1" d="M20.95 2.1a18.21 18.21 0 0 1 18.21 18.21v7.49a6.52 6.52 0 0 1-6.52 6.52H9.26a6.52 6.52 0 0 1-6.52-6.52v-7.49A18.21 18.21 0 0 1 20.95 2.1z"/><path class="cls-2" d="M33.93 37.47l-3.27-1.25 3.8-10a3.67 3.67 0 0 1 4.74-2.12 3.67 3.67 0 0 1 2.12 4.73l-2.43 6.38a3.85 3.85 0 0 1-4.96 2.26z"/><path class="cls-2" d="M1.58 23.66h3.49a3.85 3.85 0 0 1 3.85 3.84v6.83A3.67 3.67 0 0 1 5.25 38a3.67 3.67 0 0 1-3.67-3.67V23.66z" transform="rotate(159.15 5.256 30.83)"/><path class="cls-3" d="M37 20.92v19.46a4.12 4.12 0 0 1-1.81 3.41l-6.79 4.56a13.29 13.29 0 0 1-14.8 0l-6.84-4.56a4.11 4.11 0 0 1-1.82-3.41V20.92a16 16 0 0 1 16-16 16 16 0 0 1 16.06 16z"/><rect class="cls-4" x="8.16" y="18.17" width="10.14" height="14.03" rx="5.07" ry="5.07"/><rect class="cls-1" x="12.34" y="22.01" width="4.07" height="6.65" rx="2.04" ry="2.04"/><rect class="cls-4" x="23.6" y="18.17" width="10.14" height="14.03" rx="5.07" ry="5.07"/><rect class="cls-1" x="25.42" y="22.01" width="4.07" height="6.65" rx="2.04" ry="2.04" transform="rotate(-180 27.46 25.34)"/><circle class="cls-5" cx="27.34" cy="26.93" r="1.26"/><circle class="cls-5" cx="14.38" cy="26.93" r="1.26"/><rect class="cls-2" x="18.86" y="20.74" width="4.17" height="14.44" rx="2.02" ry="2.02"/><path class="cls-3" d="M13.47 44.52h15v3.36a3.8 3.8 0 0 1-3.8 3.8h-7.4a3.8 3.8 0 0 1-3.8-3.8v-3.36z"/><path class="cls-1" d="M37 31.13V17l2.18 2v10A2.18 2.18 0 0 1 37 31.13zM4.91 31.13V17l-2.18 2v10a2.19 2.19 0 0 0 2.18 2.13z"/><path d="M29.39 36.63v1a5.26 5.26 0 0 1-.07.89 5.54 5.54 0 0 1-5.47 4.65h-5.6a5.53 5.53 0 0 1-5.46-4.65 4.4 4.4 0 0 1-.08-.89v-1a1 1 0 0 1 1-1.05h14.63a1 1 0 0 1 1.05 1.05z" fill="#a24242"/><path class="cls-4" d="M29.39 36.63v1a5.26 5.26 0 0 1-.07.89 1.27 1.27 0 0 1-.34 0H13.12a1.15 1.15 0 0 1-.33 0 4.4 4.4 0 0 1-.08-.89v-1a1 1 0 0 1 1-1.05h14.63a1 1 0 0 1 1.05 1.05z"/><path d="M17.22 43a5.92 5.92 0 0 0 1.34.16h5a5.92 5.92 0 0 0 1.32-.16 4.13 4.13 0 0 0-7.66 0z" fill="#f14848"/><path class="cls-1" d="M26.35 3.31c-.91 0-1.8-.1-2.67-.12-2.58 0-5.16-.06-7.75-.08L8 8.3l10.34 6.27a5 5 0 0 0 5.17 0L33.87 8.3z"/><path class="cls-1" d="M17.65 2.8L12.51 11 9.77 8.89a4.82 4.82 0 0 1-1.5-6.65 4.82 4.82 0 0 1 6.65-1.5z"/><circle cx="10.14" cy="14.01" r="2.55" fill="#ffd7cc"/></svg>