<svg id="Layer_3" data-name="Layer 3" xmlns="http://www.w3.org/2000/svg" viewBox="0 0 42 56"><defs><style>.cls-1{fill:#dc8e70}.cls-2{fill:#4b4b4b}.cls-5{fill:#fff}.cls-7{fill:#ba7258}</style></defs><circle class="cls-1" cx="36.25" cy="33.12" r="5.62"/><circle class="cls-1" cx="5.79" cy="33.12" r="5.62"/><path class="cls-2" d="M39 17.82v11.07a6.46 6.46 0 0 1-6.46 6.46H9.76a6.46 6.46 0 0 1-6.46-6.46V17.82a17.83 17.83 0 0 1 35.66 0z"/><path d="M39 17.9V31a6.46 6.46 0 0 1-6.46 6.46H9.76A6.46 6.46 0 0 1 3.3 31V17.9z" fill="#928478"/><path class="cls-1" d="M36.56 14.78v27.86A5.57 5.57 0 0 1 31 48.21H11.25a5.57 5.57 0 0 1-5.57-5.57V14.7a8.39 8.39 0 0 1 8.44-8.39l14.1.08a8.39 8.39 0 0 1 8.34 8.39z"/><path d="M29.11 35.37V36a6 6 0 0 1-.11 1.2 5.72 5.72 0 0 1-5.58 4.51h-4.87A5.73 5.73 0 0 1 13 37.2a6 6 0 0 1-.12-1.2v-.63a1.08 1.08 0 0 1 1.07-1.09H28a1.08 1.08 0 0 1 1.11 1.09z" fill="#a24242"/><path class="cls-5" d="M29.11 35.37V36a6 6 0 0 1-.11 1.2H13a6 6 0 0 1-.12-1.2v-.63a1.08 1.08 0 0 1 1.07-1.09H28a1.08 1.08 0 0 1 1.11 1.09z"/><path d="M17.24 41.55a5.58 5.58 0 0 0 1.3.16h4.86a5.59 5.59 0 0 0 1.31-.16 4 4 0 0 0-7.47 0z" fill="#f14848"/><rect class="cls-5" x="10.97" y="19.06" width="8.18" height="11.33" rx="4.09" ry="4.09"/><rect class="cls-2" x="14.95" y="23.17" width="3.29" height="5.37" rx="1.65" ry="1.65"/><rect class="cls-5" x="22.65" y="19.06" width="8.18" height="11.33" rx="4.09" ry="4.09" transform="rotate(180 26.74 24.725)"/><rect class="cls-2" x="23.62" y="23.17" width="3.29" height="5.37" rx="1.65" ry="1.65" transform="rotate(-180 25.26 25.855)"/><path class="cls-2" d="M14.46 30.06h12.83a4.11 4.11 0 0 1 4.11 4.11.9.9 0 0 1-.9.9H11.25a.9.9 0 0 1-.9-.9 4.11 4.11 0 0 1 4.11-4.11z"/><path class="cls-1" d="M22.88 31.93h-3.71a1.62 1.62 0 0 1-1.5-2.26l1.82-4.33a1.66 1.66 0 0 1 1.53-1 1.66 1.66 0 0 1 1.53 1l1.83 4.33a1.63 1.63 0 0 1-1.5 2.26z"/><path class="cls-2" d="M35 20.22l-.29 1.34a1.43 1.43 0 0 1-1.64 1.12A74 74 0 0 0 21 21.63a61.91 61.91 0 0 0-11.32 1A1.44 1.44 0 0 1 8 21.58l-.29-1.18a1.47 1.47 0 0 1 1.07-1.91 66 66 0 0 1 10.32-1.07h4.49a79.55 79.55 0 0 1 10.3 1.07A1.43 1.43 0 0 1 35 20.22z"/><path class="cls-7" d="M32.83 38.81a.93.93 0 0 1-.93-.93v-3.07a.93.93 0 0 1 1.86 0v3.07a.93.93 0 0 1-.93.93zM9 38.81a.92.92 0 0 1-1-.93v-3.07a.93.93 0 0 1 1.85 0v3.07a.92.92 0 0 1-.85.93z"/><circle class="cls-2" cx="21.41" cy="6.35" r="5.99"/></svg>