<svg viewBox="0 0 42 56" version="1.1" xmlns="http://www.w3.org/2000/svg"><g stroke="none" stroke-width="1" fill="none" fill-rule="evenodd"><g transform="translate(.74 .94)" fill-rule="nonzero"><circle fill="#2D2D2D" cx="20.26" cy="18.26" r="18.26"/><path d="M34.66 48.66H5.86A5.86 5.86 0 0 1 0 42.8l2-25.37h36.52l2 25.37a5.86 5.86 0 0 1-5.86 5.86z" fill="#2D2D2D"/><path d="M32.981 38.046l-3.12-1.192 3.626-9.54a3.501 3.501 0 0 1 4.522-2.023 3.501 3.501 0 0 1 2.022 4.513l-2.318 6.086a3.673 3.673 0 0 1-4.732 2.156zM10.656 36.829l-3.111 1.185a3.673 3.673 0 0 1-4.737-2.116L.49 29.808a3.501 3.501 0 0 1 6.544-2.492l3.623 9.513z" fill="#FFB5A1"/><path d="M35.52 22.62v11.06c-.006 8.424-6.836 15.25-15.26 15.25C11.832 48.93 5 42.098 5 33.67v-11a8.88 8.88 0 0 1 8.88-8.88h12.76a8.88 8.88 0 0 1 8.88 8.83z" fill="#FFD1BE"/><rect fill="#FFF" x="9.058" y="20.261" width="9.674" height="13.385" rx="4.837"/><path d="M8.081 28.81v-3.712c0-1.605.65-3.059 1.703-4.11a5.795 5.795 0 0 1 4.11-1.704" stroke="#2D2D2D" stroke-width="1.953" stroke-linecap="round"/><rect fill="#2B70C8" x="13.046" y="23.925" width="3.883" height="6.344" rx="1.941"/><rect fill="#FFF" x="21.788" y="20.261" width="9.674" height="13.385" rx="4.837"/><path d="M26.625 19.284c1.606 0 3.059.651 4.111 1.703a5.795 5.795 0 0 1 1.703 4.111v3.711" stroke="#2D2D2D" stroke-width="1.953" stroke-linecap="round"/><rect fill="#2B70C8" transform="rotate(-180 25.475 27.106)" x="23.534" y="23.934" width="3.883" height="6.344" rx="1.941"/><circle fill-opacity=".3" fill="#FFF" cx="25.356" cy="28.618" r="1.202"/><circle fill-opacity=".3" fill="#FFF" cx="14.992" cy="28.618" r="1.202"/><rect fill="#FFB5A1" x="18.759" y="22.713" width="3.002" height="11.823" rx="1.501"/><path d="M28.174 36.933v.954c.002.284-.02.568-.066.85a5.285 5.285 0 0 1-5.219 4.435h-5.342a5.276 5.276 0 0 1-5.21-4.436 4.198 4.198 0 0 1-.076-.849v-.954a.954.954 0 0 1 .954-1.002h13.958a.954.954 0 0 1 1.001 1.002z" fill="#A24242"/><path d="M28.174 36.933v.954c.002.284-.02.568-.066.85a1.212 1.212 0 0 1-.325 0h-15.13c-.105.014-.211.014-.315 0a4.198 4.198 0 0 1-.077-.85v-.954a.954.954 0 0 1 .954-1.002h13.958a.954.954 0 0 1 1.001 1.002z" fill="#FFF"/><path d="M16.564 43.01c.419.1.848.15 1.278.153h4.77a5.648 5.648 0 0 0 1.26-.153 3.94 3.94 0 0 0-7.308 0z" fill="#F14848"/><path d="M30.4 10.89S29.26 21.06 3.01 23.52L6.75 9.15l23.65 1.74z" fill="#2D2D2D"/></g></g></svg>