<svg viewBox="0 0 42 56" version="1.1" xmlns="http://www.w3.org/2000/svg"><g stroke="none" stroke-width="1" fill="none" fill-rule="evenodd"><g><g transform="translate(.043 -3.405)"><path d="M20.968 4.992c9.375 0 16.975 7.6 16.975 16.975v7.988H3.994v-7.988c0-9.375 7.6-16.975 16.974-16.975z" fill="#AFAFAF"/><rect fill="#F9C98E" x="0" y="29.955" width="41.937" height="7.988" rx="3.843"/><path d="M19.97 13.979h1.997c8.823 0 15.976 7.152 15.976 15.976v9.25a6.726 6.726 0 0 1-6.726 6.726H10.72a6.726 6.726 0 0 1-6.726-6.726v-9.25c0-8.824 7.153-15.976 15.976-15.976z" fill="#F9C98E"/><rect fill="#F9C98E" x="13.979" y="40.938" width="13.979" height="7.988" rx="3.843"/><path d="M18.14 38.95a4.024 4.024 0 0 0 5.675 0" stroke="#DF9F60" stroke-width="1.922" stroke-linecap="round" stroke-linejoin="round"/><path d="M24.42 33.865a.914.914 0 0 1 1.289 0l4.384 4.366a.906.906 0 0 1 0 1.285.914.914 0 0 1-1.29 0l-4.384-4.367a.906.906 0 0 1 0-1.284zM17.61 33.865a.914.914 0 0 0-1.29 0l-4.385 4.366a.906.906 0 0 0 0 1.285.914.914 0 0 0 1.29 0l4.384-4.367a.906.906 0 0 0 0-1.284z" fill="#DF9F60"/><path d="M14.273 3.807l6.494 5.772H11.78V4.926a1.498 1.498 0 0 1 2.493-1.119z" fill="#AFAFAF"/><path d="M7.73 5.214l8.465 2.472-7.769 4.474-2.452-4.83A1.498 1.498 0 0 1 7.73 5.213z" fill="#AFAFAF"/><rect fill="#E5E5E5" x="3.994" y="20.968" width="1.997" height="11.982" rx=".998"/><rect fill="#E5E5E5" transform="matrix(-1 0 0 1 73.888 0)" x="35.946" y="20.968" width="1.997" height="11.982" rx=".998"/><path d="M20.968 7.988c8.272 0 14.978 6.706 14.978 14.977v8.987H5.99v-8.987c0-8.271 6.706-14.977 14.977-14.977z" fill="#F9C98E"/><rect fill="#F0B67E" x="14.977" y="16.974" width="11.982" height="1.997" rx=".998"/><rect fill="#F0B67E" x="14.977" y="12.98" width="11.982" height="1.997" rx=".998"/><g stroke="#4B4B4B" stroke-linecap="round" stroke-linejoin="round" stroke-width="2.882"><path d="M16.529 28.178a3.843 3.843 0 0 1-5.25 1.406M25.257 28.178a3.843 3.843 0 0 0 5.25 1.406"/></g><rect fill="#DF9F60" x="18.971" y="27.958" width="3.994" height="8.986" rx="1.997"/><rect fill="#FFF" transform="rotate(15 26.46 23.964)" x="22.965" y="21.967" width="6.989" height="3.994" rx="1.922"/><rect fill="#FFF" transform="rotate(-15 15.477 23.964)" x="11.982" y="21.967" width="6.989" height="3.994" rx="1.922"/></g></g></g></svg>