<svg id="Layer_3" data-name="Layer 3" xmlns="http://www.w3.org/2000/svg" viewBox="0 0 42 56"><defs><style>.cls-1{fill:#ffd801}.cls-2{fill:#ffb49e}.cls-3{fill:#fff}.cls-4{fill:#2b70c8}</style></defs><path class="cls-1" d="M20.93 0a19.71 19.71 0 0 1 19.71 19.71v15.55a12 12 0 0 1-12 12H13.18a12 12 0 0 1-12-12V19.71A19.71 19.71 0 0 1 20.93 0z"/><path class="cls-2" d="M37.2 25a3.13 3.13 0 0 1 3.13 3.13v5.82A3.28 3.28 0 0 1 37 37.2h-3v-9.1a3.13 3.13 0 0 1 3.2-3.1z" transform="rotate(20.85 37.187 31.088)"/><path class="cls-2" d="M1.63 25h3a3.28 3.28 0 0 1 3.28 3.28v5.82a3.13 3.13 0 0 1-3.15 3.1 3.13 3.13 0 0 1-3.13-3.13V25z" transform="rotate(159.15 4.758 31.09)"/><rect class="cls-2" x="5.37" y="7.89" width="30.77" height="43.02" rx="15.38" ry="15.38" transform="rotate(180 20.75 29.395)"/><rect class="cls-3" x="9.28" y="23.25" width="8.86" height="12.27" rx="4.43" ry="4.43"/><rect class="cls-4" x="12.94" y="26.61" width="3.56" height="5.82" rx="1.78" ry="1.78"/><rect class="cls-3" x="23.48" y="23.43" width="8.86" height="12.27" rx="4.43" ry="4.43" transform="rotate(180 27.905 29.57)"/><rect class="cls-4" x="25.12" y="26.61" width="3.56" height="5.82" rx="1.78" ry="1.78" transform="rotate(-180 26.9 29.525)"/><rect x="18.83" y="20.99" width="3.82" height="14.81" rx="1.91" ry="1.91" transform="rotate(180 20.74 28.39)" fill="#ff9c86"/><path class="cls-1" d="M27.42 9.41s-7.84 16.72-22 16.72V23A15.07 15.07 0 0 1 20.44 7.89h7z"/><path class="cls-1" d="M23.18 9.41l1.38 2.95a29.29 29.29 0 0 0 8.11 10.33l3.47 2.79V16.6a8.72 8.72 0 0 0-8.72-8.71z"/><path d="M21.06 43A5.11 5.11 0 0 1 16 37.92a1 1 0 0 1 2 0 3.11 3.11 0 1 0 6.21 0 1 1 0 0 1 2 0A5.11 5.11 0 0 1 21.06 43z" fill="#e68c7e"/><path class="cls-2" d="M33.12 32.15A14.57 14.57 0 0 0 25.65 36l8.15 1.4zM8.91 32.15A14.61 14.61 0 0 1 16.38 36l-8.15 1.4z"/><path d="M37.25 20.8v.2a13.05 13.05 0 0 1-1.14 5.51 9.1 9.1 0 0 0 .1-1.39c0-6.81-6.92-12.33-15.46-12.33S5.29 18.34 5.29 25.15a8.41 8.41 0 0 0 .11 1.42l-.05-.1A13.14 13.14 0 0 1 4.24 21v-.2a17.46 17.46 0 0 1 3-10 16.65 16.65 0 0 1 13.5-7.41 16.62 16.62 0 0 1 13.52 7.42 17.42 17.42 0 0 1 2.99 9.99z" fill="#4b4b4b"/></svg>