<svg id="Layer_3" data-name="Layer 3" xmlns="http://www.w3.org/2000/svg" viewBox="0 0 42 56"><defs><style>.cls-1{fill:#825035}.cls-3{fill:#db8f73}.cls-4{fill:#ce7455}.cls-5{fill:#fff}.cls-6{fill:#61361e}</style></defs><path class="cls-1" d="M20.94 31.52a15.72 15.72 0 1 1 15.71-15.71 15.73 15.73 0 0 1-15.71 15.71z"/><circle class="cls-1" cx="20.94" cy="15.81" r="13.33"/><circle cx="20.94" cy="20.09" r="12.22" fill="#7af0f2"/><circle class="cls-3" cx="7.74" cy="39.06" r="5.63"/><circle class="cls-3" cx="34.23" cy="39.06" r="5.63"/><circle class="cls-1" cx="21.05" cy="29.47" r="18.34"/><path class="cls-3" d="M21.05 54.65A14.88 14.88 0 0 1 6.17 39.77v-7.33a14.68 14.68 0 0 1 1.95-7.36 14.88 14.88 0 0 1 22.79-3.79l.2.18c.15.14.31.29.46.45a13.21 13.21 0 0 1 1.34 1.54 14.75 14.75 0 0 1 3 9v7.33a14.89 14.89 0 0 1-14.86 14.86z"/><rect class="cls-4" x="18.71" y="35.92" width="4.08" height="8.81" rx="1.34" ry="1.34"/><path class="cls-1" d="M6 34.82v-3a7.6 7.6 0 0 1 11.24-6.67l.13.08a7.59 7.59 0 0 0 7.24 0l.33-.18a7.61 7.61 0 0 1 11.21 6.69v3.05l.94-7.59-5.91-7.78L21 16.32l-11.22 4-4.97 8.41z"/><rect class="cls-5" x="9.13" y="30.81" width="8.87" height="12.28" rx="4.44" ry="4.44"/><rect class="cls-6" x="12.79" y="34.17" width="3.57" height="5.83" rx="1.78" ry="1.78"/><rect class="cls-5" x="23.49" y="30.81" width="8.87" height="12.28" rx="4.44" ry="4.44" transform="rotate(180 27.93 36.95)"/><rect class="cls-6" x="25.09" y="34.17" width="3.57" height="5.83" rx="1.78" ry="1.78" transform="rotate(180 26.87 37.09)"/><circle class="cls-4" cx="14.35" cy="45.31" r=".61"/><circle class="cls-4" cx="11.83" cy="44.71" r=".61"/><circle class="cls-4" cx="12.76" cy="46.57" r=".61"/><circle class="cls-4" cx="26.76" cy="45.31" r=".61"/><circle class="cls-4" cx="29.28" cy="44.71" r=".61"/><circle class="cls-4" cx="28.35" cy="46.57" r=".61"/><path d="M20.84 49.34a4.47 4.47 0 0 1-4.29-3.16.87.87 0 1 1 1.66-.52 2.75 2.75 0 0 0 2.63 1.94 2.78 2.78 0 0 0 2.65-2 .88.88 0 0 1 1.08-.6.87.87 0 0 1 .59 1.08 4.51 4.51 0 0 1-4.32 3.26z" fill="#b8725e"/><circle class="cls-5" cx="24.19" cy="8.19" r="3.14"/><circle cx="18.65" cy="10.15" r="3.14" fill="#1db0f6"/></svg>