<svg id="Layer_3" data-name="Layer 3" xmlns="http://www.w3.org/2000/svg" viewBox="0 0 42 56"><defs><style>.cls-1{fill:#62361b}.cls-2{fill:#dc8e70}.cls-3{fill:#fff}</style></defs><path class="cls-1" d="M15.31 46.27h12.13v1.8a2.49 2.49 0 0 1-2.49 2.49h-7.14a2.49 2.49 0 0 1-2.49-2.49v-1.8h-.01z"/><circle class="cls-2" cx="5.66" cy="28.63" r="5.67"/><circle class="cls-2" cx="36.31" cy="28.63" r="5.67"/><path class="cls-2" d="M37.29 21v17.46a8.81 8.81 0 0 1-8.82 8.81H13.62a8.81 8.81 0 0 1-8.81-8.81V21a16.25 16.25 0 0 1 27-12.16l.21.19.51.49A15.7 15.7 0 0 1 34 11.23 16.14 16.14 0 0 1 37.29 21z"/><rect class="cls-3" x="9.72" y="24.31" width="8.02" height="11.11" rx="4.01" ry="4.01"/><rect class="cls-1" x="13.04" y="27.36" width="3.23" height="5.27" rx="1.61" ry="1.61"/><rect class="cls-3" x="24.17" y="24.31" width="8.02" height="11.11" rx="4.01" ry="4.01" transform="rotate(180 28.185 29.865)"/><rect class="cls-1" x="25.62" y="27.36" width="3.23" height="5.27" rx="1.61" ry="1.61" transform="rotate(-180 27.23 29.99)"/><rect x="18.75" y="25.68" width="4.43" height="12.56" rx="1.46" ry="1.46" fill="#ce724e"/><path class="cls-1" d="M6.52 10.54v26.74a1.08 1.08 0 0 1-.9 1.18 1.07 1.07 0 0 1-.91-1.18V11.77c0-2.94.64-1.45 1.81-1.23zM37.29 20.85v16.43a1.94 1.94 0 0 1 0 .24 1 1 0 0 1-.89.94h-.12a1.12 1.12 0 0 1-.78-1.17v-9.9c0-2.75 1-5.46 0-7.87L33.72 19a20.51 20.51 0 0 1-1.53-7.87V9.3l.29.28a15.62 15.62 0 0 1 4.81 11.27z"/><path class="cls-1" d="M6.44 15.27l.86.21.01.09-.87-.3zM34 11.33l-5.57 3.51a18.57 18.57 0 0 1-12.33 2.85l-8.8-2.21L6.94 13l-2.23-1.22a25.29 25.29 0 0 1 2.08-10L7 1.17A2 2 0 0 1 9.35.07L23.07 4a18.52 18.52 0 0 1 9 5.16A27.13 27.13 0 0 1 34 11.33z"/><path d="M19.74 42.27a25.93 25.93 0 0 1-3-.19 1 1 0 1 1 .25-2c6.5.81 9.36-1.38 9.39-1.4a1 1 0 1 1 1.27 1.54c-.15.11-2.58 2.05-7.91 2.05z" fill="#b8725c"/><path class="cls-2" d="M32.29 32.63s-2.56-1.22-7.64 3.17l6 1.89z"/><path class="cls-1" d="M6.38 11.71h27.61v6.12H6.38z"/><path class="cls-1" d="M9.81 17l-.4 2.19a5.41 5.41 0 0 1-2.47 3.64l-.76.47.26-6.63zM35.48 19.15v18.13a.94.94 0 1 0 1.81 0v-14.9c0-2.94-.64-3.45-1.81-3.23z"/><path class="cls-1" d="M32.19 17l.4 2.19a5.45 5.45 0 0 0 2.47 3.64l.76.47-.26-6.63zM21 44a2.21 2.21 0 0 1 2.21 2.21v2.21h-4.46v-2.17A2.21 2.21 0 0 1 21 44z"/></svg>