<svg id="Layer_3" data-name="Layer 3" xmlns="http://www.w3.org/2000/svg" viewBox="0 0 42 56"><defs><style>.cls-1{fill:#825035}.cls-2{fill:#2d2d2d}.cls-3{fill:#dc8e70}.cls-6{fill:#fff}.cls-7{fill:#2c6602}</style></defs><circle class="cls-1" cx="28.82" cy="12.41" r="12.45"/><circle class="cls-2" cx="25.27" cy="19.28" r="12.63"/><circle class="cls-3" cx="5.91" cy="38.31" r="5.58"/><circle class="cls-3" cx="36.07" cy="38.31" r="5.58"/><ellipse class="cls-1" cx="21.05" cy="28.11" rx="20.58" ry="18.66"/><rect class="cls-3" x="5.07" y="19.49" width="31.96" height="34.9" rx="15.98" ry="15.98"/><rect class="cls-2" x="9.76" y="26.86" width="8.24" height="11.4" rx="3.92" ry="3.92"/><rect class="cls-2" x="23.97" y="26.86" width="8.24" height="11.4" rx="4.12" ry="4.12" transform="rotate(-180 28.09 32.555)"/><rect x="18.87" y="31.68" width="4.35" height="11.16" rx="2.18" ry="2.18" fill="#cf7451"/><path d="M20.16 46.28a1 1 0 0 1-.06-2c3.62-.24 5.26-1.51 5.28-1.53a1 1 0 0 1 1.24 1.53c-.08.07-2.08 1.68-6.39 2z" fill="#b8725c"/><rect class="cls-6" x="9.76" y="28.53" width="8.24" height="11.4" rx="4.12" ry="4.12"/><rect class="cls-7" x="13.16" y="31.65" width="3.31" height="5.41" rx="1.66" ry="1.66"/><rect class="cls-6" x="23.97" y="28.53" width="8.24" height="11.4" rx="4.12" ry="4.12" transform="rotate(-180 28.09 34.23)"/><rect class="cls-7" x="25.5" y="31.65" width="3.31" height="5.41" rx="1.66" ry="1.66" transform="rotate(-180 27.15 34.355)"/><path d="M11.92 42.29a2.24 2.24 0 0 1-.26 1.06l-2.83 5.39a14.46 14.46 0 0 1-2.75-4.47l1.59-3a2.25 2.25 0 0 1 4.25 1z" fill="#f34848"/><rect x="21.77" y="21.43" width="9.18" height="3.93" rx="1.97" ry="1.97" transform="rotate(22.77 26.363 23.397)" fill="#fed731"/><path d="M34.27 47.5a14.82 14.82 0 0 1-7.49 5.5v-2.2a3.28 3.28 0 0 1 3.27-3.28z" fill="#aee560"/><path class="cls-3" d="M32.62 37.79s-4.83-.32-7.7 2.71l4.67 1.56z"/><path class="cls-1" d="M13.4 25.44a3.72 3.72 0 0 1-.6-5.23l6.2-7.8 5.43 5.14-5.78 7.29a3.73 3.73 0 0 1-5.25.6z"/></svg>