<svg id="Layer_3" data-name="Layer 3" xmlns="http://www.w3.org/2000/svg" viewBox="0 0 42 56"><defs><style>.cls-1{fill:#2d2d2d}.cls-2{fill:#8b4824}.cls-3{fill:#ffd201}.cls-4{fill:#a56644}.cls-5{fill:#fff}.cls-6{fill:#4b4b4b}</style></defs><path class="cls-1" d="M21.07 41.67a21.27 21.27 0 0 1-4.95-.59A20.84 20.84 0 0 1 21 0a21.18 21.18 0 0 1 5 .59 20.84 20.84 0 0 1-4.91 41.08z"/><circle class="cls-1" cx="21.05" cy="20.84" r="18.33"/><path class="cls-2" d="M6.46 28.61v11.16a5.58 5.58 0 0 1 0-11.16zM41.37 34.19a5.59 5.59 0 0 1-5.59 5.59h-.12V28.61h.12a5.59 5.59 0 0 1 5.59 5.58z"/><circle class="cls-3" cx="37.09" cy="39.18" r="1.7"/><circle class="cls-3" cx="5.03" cy="39.18" r="1.7"/><path class="cls-4" d="M14.16 17.61h13.78a7.74 7.74 0 0 1 7.74 7.74v16.48a5.37 5.37 0 0 1-5.37 5.37H11.79a5.37 5.37 0 0 1-5.37-5.37V25.36a7.74 7.74 0 0 1 7.74-7.75z" transform="rotate(-180 21.05 32.41)"/><rect class="cls-5" x="10.17" y="24.28" width="8.34" height="11.54" rx="4.17" ry="4.17"/><rect class="cls-6" x="13.61" y="27.45" width="3.35" height="5.47" rx="1.68" ry="1.68"/><rect class="cls-5" x="23.55" y="24.28" width="8.34" height="11.54" rx="4.17" ry="4.17" transform="rotate(-180 27.72 30.055)"/><rect class="cls-6" x="25.1" y="27.45" width="3.35" height="5.47" rx="1.68" ry="1.68" transform="rotate(180 26.77 30.185)"/><path class="cls-2" d="M21 27.28a1.88 1.88 0 0 1 1.88 1.88v7.3H19.1v-7.3a1.88 1.88 0 0 1 1.9-1.88z"/><path class="cls-1" d="M36.49 37.15a.84.84 0 0 1-.84-.83V22.21h2.87l-1.2 14.18a.84.84 0 0 1-.83.76zM5.58 37.15a.83.83 0 0 0 .84-.83V22.21H3.55l1.2 14.18a.84.84 0 0 0 .83.76z"/><rect class="cls-2" x="17.53" y="33.57" width="6.89" height="3.17" rx="1.58" ry="1.58"/><path class="cls-1" d="M21.89 21.27a43.11 43.11 0 0 1-16.8-3.4l1-4.81h31.63l1 4.81a43.12 43.12 0 0 1-16.83 3.4z"/><path class="cls-1" d="M6.06 15.56a40.73 40.73 0 0 0 31.66 0H6.06z"/><path class="cls-4" d="M33.52 32.13s-7.05 0-9.88 5.81l9.36-1.2z"/><path d="M22.56 42.11a8.69 8.69 0 0 1-2.42-.37 1 1 0 0 1 .56-1.92 5.71 5.71 0 0 0 6.9-3 1 1 0 0 1 1.81.86 7.82 7.82 0 0 1-6.85 4.43z" fill="#61361e"/><path class="cls-1" d="M15.35 47.21h11.4v.17a1.87 1.87 0 0 1-1.87 1.87h-7.66a1.87 1.87 0 0 1-1.87-1.87v-.17z"/><path class="cls-1" d="M21 44.57a1.88 1.88 0 0 1 1.88 1.88v1.88H19.1v-1.89a1.88 1.88 0 0 1 1.9-1.87z"/></svg>