<svg id="Layer_3" data-name="Layer 3" xmlns="http://www.w3.org/2000/svg" viewBox="0 0 42 56"><defs><style>.cls-1{fill:#e59b80}.cls-2{fill:#7a4830}.cls-3{fill:#fff}.cls-4{fill:#61361e}.cls-8{fill:#fdb02a}</style></defs><circle class="cls-1" cx="6.6" cy="29.12" r="4.98"/><circle class="cls-1" cx="35.38" cy="29.12" r="4.98"/><path class="cls-2" d="M35.21 20.83h2.49v14.08a2.49 2.49 0 0 1-2.49 2.49V20.83z"/><path class="cls-2" d="M4.22 20.83a2.49 2.49 0 0 1 2.49 2.49v14.07H4.22V20.83z" transform="rotate(-180 5.46 29.11)"/><path class="cls-1" d="M35.3 26.49v15.73a7.59 7.59 0 0 1-7.59 7.59H14.22a7.58 7.58 0 0 1-7.58-7.59V26.49A14.28 14.28 0 0 1 21 12.16a14.35 14.35 0 0 1 14.2 12.36 16 16 0 0 1 .1 1.97z"/><rect class="cls-3" x="10.74" y="23.47" width="7.78" height="10.77" rx="3.89" ry="3.89"/><rect class="cls-4" x="13.95" y="26.42" width="3.13" height="5.11" rx="1.56" ry="1.56"/><rect class="cls-3" x="23.41" y="23.47" width="7.78" height="10.77" rx="3.89" ry="3.89" transform="rotate(180 27.305 28.85)"/><rect class="cls-4" x="24.81" y="26.42" width="3.13" height="5.11" rx="1.56" ry="1.56" transform="rotate(180 26.375 28.97)"/><path class="cls-2" d="M27.06 34.8H14.87A3.83 3.83 0 0 0 11 38.63v11.55a2.07 2.07 0 0 0 2.07 2.07 2.07 2.07 0 0 0 2.07-2.07v-7.84h11.59v7.84a2.06 2.06 0 0 0 2.07 2.07 2.07 2.07 0 0 0 2.07-2.06V38.64a3.83 3.83 0 0 0-3.81-3.84z"/><rect x="19.11" y="25.35" width="3.7" height="10.51" rx="1.22" ry="1.22" fill="#d67155"/><path d="M4.85 21.73l-3.61-2.4A2.75 2.75 0 0 1 0 17v-4.69a2.75 2.75 0 0 1 1.44-2.43L18.38.67a5.48 5.48 0 0 1 5.24 0l16.94 9.21A2.75 2.75 0 0 1 42 12.31V17a2.75 2.75 0 0 1-1.24 2.31l-3.61 2.4" fill="#3072c6"/><path d="M6 17.62h29.9a2.4 2.4 0 0 1 2.4 2.4v2.86H3.59V20A2.4 2.4 0 0 1 6 17.62z" fill="#2d2d2d"/><rect class="cls-8" x="2.63" y="19.62" width="1.94" height="5.51" rx=".97" ry=".97"/><rect class="cls-8" x="37.32" y="19.62" width="1.94" height="5.51" rx=".97" ry=".97"/><path d="M38.06 23.65v.62a.93.93 0 0 1-.61.86 50.28 50.28 0 0 1-26.84 1.74c-1-.21-2-.45-3-.73s-2.19-.63-3.27-1a.91.91 0 0 1-.61-.86v-.62a.92.92 0 0 1 .91-.92h32.51a.92.92 0 0 1 .91.91z" fill="#4b4b4b"/><path class="cls-8" d="M26.08 11.4v2.53a7.66 7.66 0 0 1-2 5.14A7.58 7.58 0 0 1 22 20.69a1.62 1.62 0 0 1-1.54 0 7.8 7.8 0 0 1-1.94-1.48.93.93 0 0 1-.14-.14 7.85 7.85 0 0 1-1.46-2.4 7.54 7.54 0 0 1-.51-2.74V11.4a1.32 1.32 0 0 1 1.32-1.32h7a1.32 1.32 0 0 1 1.35 1.32z"/><circle cx="21.26" cy="14.6" r="3.19" fill="#fd9526"/><path d="M24.21 12.93a1.48 1.48 0 0 1-.43 1l-5.24 5.24a.93.93 0 0 1-.14-.14 7.85 7.85 0 0 1-1.46-2.4l4.77-4.77a1.47 1.47 0 0 1 2.07 0 1.49 1.49 0 0 1 .43 1.07z" opacity=".5" fill="#fff"/><path d="M14.88 22.68l-.05.05-4.22 4.14c-1-.21-2-.45-3-.73l3.48-3.41.05-.05z" fill="#afafaf"/></svg>