<svg id="Layer_3" data-name="Layer 3" xmlns="http://www.w3.org/2000/svg" viewBox="0 0 42 56"><defs><style>.cls-1{fill:#2d2d2d}.cls-2{fill:#f58f00}.cls-4{fill:#4b4b4b}.cls-5{fill:#fff}.cls-6{fill:#ffc6b7}.cls-9{fill:#ff4747}</style></defs><path class="cls-1" d="M.13 30.69h41.46v11a9.8 9.8 0 0 1-9.8 9.8H12.45A12.32 12.32 0 0 1 .13 39.19v-8.5z"/><circle class="cls-1" cx="20.87" cy="30.34" r="20.73"/><circle class="cls-2" cx="35.9" cy="37.19" r="3.09"/><circle class="cls-2" cx="7.18" cy="37.25" r="3.09"/><path d="M36.63 18.5v9.08a20 20 0 0 1-9 16.69l-2 1.3a8.75 8.75 0 0 1-9.75-.11l-1.64-1.12a19.54 19.54 0 0 1-4.64-4.47A19.82 19.82 0 0 1 5.66 28v-9.24c0-3.18 2.53-11.59 5.7-11.62l19.42-.24c3.22-.03 5.84 8.38 5.85 11.6z" fill="#ffcfc2"/><path class="cls-4" d="M29.56 23.05H33a1.32 1.32 0 0 1 1.32 1.32v.45a5.61 5.61 0 0 1-5.61 5.61h-3.44a1.32 1.32 0 0 1-1.32-1.32v-.45a5.61 5.61 0 0 1 5.61-5.61z" transform="rotate(-180 29.145 26.745)"/><path class="cls-5" d="M33 25.22v.46a5.61 5.61 0 0 1-5.61 5.6H25A1.33 1.33 0 0 1 23.62 30v-.45a5.62 5.62 0 0 1 5.45-5.6h2.64A1.32 1.32 0 0 1 33 25.22z"/><path class="cls-4" d="M9.34 23.05h3.47a5.61 5.61 0 0 1 5.61 5.61v.45a1.32 1.32 0 0 1-1.32 1.32h-3.47A5.61 5.61 0 0 1 8 24.83v-.45a1.32 1.32 0 0 1 1.34-1.33z"/><path class="cls-5" d="M18.75 29.51V30a1.33 1.33 0 0 1-1.32 1.32h-2.49a5.6 5.6 0 0 1-5.6-5.6v-.46a1.31 1.31 0 0 1 1.32-1.32h2.64a5.6 5.6 0 0 1 5.45 5.6z"/><path class="cls-4" d="M17 25.43v2.25a2.07 2.07 0 0 1-4.13 0v-2.61a2 2 0 0 1 .39-1.21A5.56 5.56 0 0 1 17 25.43zM29.46 25.07v2.61a2.07 2.07 0 0 1-4.13 0v-2.24a5.52 5.52 0 0 1 3.74-1.58 2 2 0 0 1 .39 1.21z"/><path class="cls-6" d="M12.43 39.54a2.75 2.75 0 0 1-2.78.33A19.82 19.82 0 0 1 5.66 28v-1.7l.08-.06 7.2 9.42a2.77 2.77 0 0 1-.51 3.88zM36.64 26.41v1.17a19.86 19.86 0 0 1-4.21 12.27 2.77 2.77 0 0 1-3.27-4.23l7.17-9.44z"/><rect x="19.58" y="21.73" width="3.32" height="11.62" rx="1.66" ry="1.66" transform="rotate(-.12 19.069 28.668)" fill="#ffa58d"/><path class="cls-1" d="M39.07 46.2l-3.65.01-.06-29.29 3.65.39.06 28.89zM7.14 42.79l-3.25-1.11-.09-24.1 3.33-.8.01 26.01z"/><path class="cls-1" d="M4.08 17.39a17.45 17.45 0 1 1 34.9 0l-1 3h-9.64a10.18 10.18 0 0 1-7.2-3l-.05.05A10.17 10.17 0 0 1 14 20.37H5z"/><path class="cls-2" d="M39.66 22a1 1 0 0 1-.8-.4 22.89 22.89 0 0 0-35.24-1.72 1 1 0 1 1-1.47-1.34 24.88 24.88 0 0 1 38.3 1.88 1 1 0 0 1-.79 1.58z"/><path d="M27.31 35.77a4.14 4.14 0 1 1-8 2.25z" fill="#ff6464"/><path class="cls-9" d="M23.15 37.16a2.69 2.69 0 0 1 4.7-2.39.74.74 0 0 1-.38 1.17z"/><path class="cls-9" d="M19.41 38.22a.75.75 0 0 1-.94-.81 2.69 2.69 0 0 1 5.26-.41z"/></svg>