<svg viewBox="0 0 42 56" fill="none" xmlns="http://www.w3.org/2000/svg"><path d="M3.5 26.5V8.25a1 1 0 0 1 .832-.985L36.75 1.75" stroke="#AEAEAE" stroke-width="2" stroke-linejoin="round"/><path d="M36.75 3.5a1.75 1.75 0 1 0 0-3.5 1.75 1.75 0 0 0 0 3.5z" fill="#AEAEAE"/><path d="M37.897 12.125H4.103a4 4 0 0 0-4 4V52a4 4 0 0 0 4 4h33.794a4 4 0 0 0 4-4V16.125a4 4 0 0 0-4-4z" fill="#F1A752"/><path d="M33.715 16.238H8.285A3.785 3.785 0 0 0 4.5 20.023v18.042a3.785 3.785 0 0 0 3.785 3.785h25.43a3.785 3.785 0 0 0 3.785-3.785V20.023a3.785 3.785 0 0 0-3.785-3.785z" fill="#5D5D5D"/><path d="M17.875 19.46h5.833M17.875 38.026h5.833M13.917 21.781h13.75M12.25 24.102h17.083M11.313 26.423H30.27M11 28.743h19.583M11.313 31.064H30.27M12.25 33.385h17.083M13.917 35.705h13.75" stroke="#282828" stroke-width="1.25" stroke-linecap="round"/><path d="M31.5 54a5 5 0 1 0 0-10 5 5 0 0 0 0 10z" fill="#E5E5E5"/><path d="M31.5 51.702a2.702 2.702 0 1 0 0-5.404 2.702 2.702 0 0 0 0 5.404z" fill="#A6A6A6"/><path d="M33.734 50.526L31.5 49" stroke="#5D5D5D" stroke-linecap="round"/><path d="M21.5 44.977h-14a2 2 0 0 0-2 2v4.046a2 2 0 0 0 2 2h14a2 2 0 0 0 2-2v-4.046a2 2 0 0 0-2-2z" fill="#E5E5E5"/><path d="M10.972 51.028a2.028 2.028 0 1 0 0-4.056 2.028 2.028 0 0 0 0 4.056zM18.028 51.028a2.028 2.028 0 1 0 0-4.056 2.028 2.028 0 0 0 0 4.056z" fill="#5D5D5D"/></svg>