<svg viewBox="0 0 42 56" version="1.1" xmlns="http://www.w3.org/2000/svg"><g stroke="none" stroke-width="1" fill="none" fill-rule="evenodd"><g><circle fill="#FF8F76" fill-rule="nonzero" cx="5.43" cy="30.925" r="5.43"/><circle fill="#FF8F76" fill-rule="nonzero" cx="36.135" cy="30.925" r="5.43"/><path d="M32.065 47.645l-7.83 4.285a7.235 7.235 0 0 1-6.92 0L9.49 47.645A10.43 10.43 0 0 1 4.06 38.5V19.935A16.715 16.715 0 0 1 20.785 3.22c9.232 0 16.717 7.483 16.72 16.715V38.5a10.44 10.44 0 0 1-5.44 9.145z" fill="#FFB49E" fill-rule="nonzero"/><rect fill="#FF8F76" fill-rule="nonzero" x="17.528" y="24.25" width="6.51" height="13.1" rx="2.103"/><path d="M3.56 15.11h34.445v17.75a1.5 1.5 0 0 1-1.5 1.5H5.06a1.5 1.5 0 0 1-1.5-1.5V15.11z" fill="#555"/><path d="M19.033 22.13v5.545a4.155 4.155 0 0 1-4.16 4.16h-3.38l.74-9.705h6.8z" fill="#FFB49E" fill-rule="nonzero"/><path d="M16.652 22.13v5a4.73 4.73 0 0 1-9.46 0v-5h9.46zM22.742 22.13v5.545a4.16 4.16 0 0 0 4.16 4.16h3.38l-.75-9.705h-6.79z" fill="#FFB49E" fill-rule="nonzero"/><path d="M25.127 22.26v5a4.73 4.73 0 0 0 9.455 0v-5h-9.455z" fill="#FFB49E" fill-rule="nonzero"/><path d="M16.132 28.995a.765.765 0 0 1-.765-.77 1.25 1.25 0 0 0-2.5 0 .77.77 0 1 1-1.535 0 2.77 2.77 0 1 1 5.54 0 .765.765 0 0 1-.74.77zM29.002 28.995a.77.77 0 0 1-.77-.77 1.25 1.25 0 0 0-2.5 0 .765.765 0 0 1-1.53 0 2.77 2.77 0 1 1 5.54 0 .77.77 0 0 1-.74.77z" fill="#BA725B" fill-rule="nonzero"/><path d="M6.752 25.055a1.535 1.535 0 0 1-.23-3.05l13.13-2a7.5 7.5 0 0 1 2.24 0l13.325 2a1.532 1.532 0 0 1-.455 3.03l-13.32-2a4.595 4.595 0 0 0-1.335 0l-13.125 2a1.865 1.865 0 0 1-.23.02z" fill="#555" fill-rule="nonzero"/><path d="M3.219 17.5C3.23 7.832 11.07 0 20.739 0c9.673-.006 17.52 7.828 17.532 17.5" fill="#252525" fill-rule="nonzero"/><path d="M37.568 21.697H3.922c-.645 0-1.264-.288-1.72-.799a2.883 2.883 0 0 1-.707-1.924v-2.327c.017-1.484 1.099-2.677 2.427-2.677h33.646c.645 0 1.264.287 1.72.798.455.511.71 1.204.707 1.925v2.327c-.017 1.484-1.099 2.677-2.427 2.677z" fill="#252525" fill-rule="nonzero"/><path d="M27.842 42.86a1.06 1.06 0 0 1-.1.14 4.825 4.825 0 0 1-2.905 1.69l-4 .685a4.745 4.745 0 0 1-4.165-1.32 4.715 4.715 0 0 1-1.31-2.41c0-.06 0-.12-.035-.18l-.03-.22-.055-.3a.9.9 0 0 1 .74-1.04l2.55-.405 9.055-1.55a.92.92 0 0 1 .165 0 .91.91 0 0 1 .88.75l.095.5a4.77 4.77 0 0 1-.885 3.66z" fill="#A14344" fill-rule="nonzero"/><path d="M27.772 37.91v2.435c0 .719-.58 1.302-1.3 1.305H15.357c0-.06 0-.12-.035-.18l-.03-.22-.055-.3a.9.9 0 0 1 .74-1.04l2.555-.41 9.055-1.55a.92.92 0 0 1 .185-.04z" fill="#FFF" fill-rule="nonzero"/><path d="M24.827 44.695l-4 .685a4.745 4.745 0 0 1-4.165-1.32 5.56 5.56 0 0 1 8.16.635h.005z" fill="#F34848" fill-rule="nonzero"/></g></g></svg>