<svg id="Layer_3" data-name="Layer 3" xmlns="http://www.w3.org/2000/svg" viewBox="0 0 42 56"><defs><style>.cls-1{fill:#db8269}.cls-2{fill:#61361e}.cls-4{fill:#fff}.cls-5{fill:#4b4b4b}</style></defs><circle class="cls-1" cx="35.9" cy="30.26" r="5.57"/><circle class="cls-1" cx="6.95" cy="30.26" r="5.57"/><path class="cls-2" d="M39.71 18.29v.26a18.48 18.48 0 0 1-.22 2.6 18.14 18.14 0 0 1-5.23 10.15H8.57c-3.36-3.31-5.44-4.46-5.44-13a18 18 0 0 1 1.34-6.87A18.27 18.27 0 0 1 21.42 0a18.5 18.5 0 0 1 2.9.24 17.45 17.45 0 0 1 5.17 1.64h.06A15.44 15.44 0 0 1 32 3.37l.23.17a18.28 18.28 0 0 1 7.48 14.75z"/><path d="M36.43 14.27v26.91A6.79 6.79 0 0 1 29.64 48H13.21a6.79 6.79 0 0 1-6.79-6.79V14.27z" fill="#e29a82"/><rect class="cls-4" x="10.14" y="21.41" width="8.83" height="12.23" rx="4.42" ry="4.42"/><rect class="cls-4" x="23.88" y="21.41" width="8.83" height="12.23" rx="4.42" ry="4.42" transform="rotate(180 28.29 27.52)"/><rect class="cls-5" x="25.5" y="24.91" width="3.49" height="5.7" rx="1.74" ry="1.74"/><rect class="cls-5" x="13.82" y="24.91" width="3.49" height="5.7" rx="1.74" ry="1.74"/><path class="cls-1" d="M22.86 22.44v10.8a1.41 1.41 0 0 1-1.41 1.41A1.41 1.41 0 0 1 20 33.24v-10.8A1.43 1.43 0 0 1 21.43 21a1.42 1.42 0 0 1 1.43 1.44z"/><path class="cls-2" d="M38.25 23.73a5.71 5.71 0 0 1 .75-3.12.89.89 0 0 1 .13-.14L36.4 12.6l-4.18-5.17-.15.05A17 17 0 0 0 29.58 6l-.52.4-1.7 2a23.62 23.62 0 0 0 .31 3.6c.73 4.37 3 11.29 10.18 12.76a6.53 6.53 0 0 1 .4-1.03z"/><path d="M10.56 19.82h28.56a1.19 1.19 0 0 0 1.19-1.2v-6a1.19 1.19 0 0 0-1.19-1.2h-28z" fill="#78c802"/><path class="cls-2" d="M31.7 9.73a17 17 0 0 1-2.89 5A16.41 16.41 0 0 1 25 18.28a37.05 37.05 0 0 1-17.09 6c-1.32.13-2.66.2-4 .2v-.26L3.51 18a17.22 17.22 0 0 1 1.34-2.64 18.31 18.31 0 0 1 18.52-8.52L28 9.13z"/><path d="M21.76 38.67a10.77 10.77 0 0 1-4.91-1.19 1 1 0 1 1 .91-1.78 8.73 8.73 0 0 0 7.66.16l.41-.18a1 1 0 0 1 1.32.49 1 1 0 0 1-.49 1.33l-.41.18a10.74 10.74 0 0 1-4.49.99z" fill="#ad6b52"/><path class="cls-2" d="M25 18.28a37.05 37.05 0 0 1-17.09 6h-3.3a4 4 0 0 1-.7-.06 4.43 4.43 0 0 1 .7-8.81h18.6z"/></svg>