<svg id="Layer_3" data-name="Layer 3" xmlns="http://www.w3.org/2000/svg" viewBox="0 0 42 56"><defs><style>.cls-1{fill:#ffb49e}.cls-3{fill:#fff}.cls-5{fill:#4b4b4b}.cls-11{fill:#ff9c86}</style></defs><circle class="cls-1" cx="5.76" cy="33.77" r="5.67"/><circle class="cls-1" cx="36.21" cy="33.77" r="5.67"/><path class="cls-1" d="M36.08 17.26v16A15.31 15.31 0 0 1 20.77 48.6 15.32 15.32 0 0 1 5.44 33.28v-16a8.92 8.92 0 0 1 8.92-8.92h12.8a8.92 8.92 0 0 1 8.92 8.9z"/><path d="M27.64 38.69v.53a4.9 4.9 0 0 1-.11 1 4.82 4.82 0 0 1-4.72 3.81H18.7a4.82 4.82 0 0 1-4.7-3.79 4.9 4.9 0 0 1-.11-1v-.53a.92.92 0 0 1 .91-.92h11.93a.92.92 0 0 1 .91.9z" fill="#a24242"/><path class="cls-3" d="M27.64 38.69v.53a4.9 4.9 0 0 1-.11 1H14a4.9 4.9 0 0 1-.11-1v-.53a.92.92 0 0 1 .91-.92h11.93a.92.92 0 0 1 .91.92z"/><path d="M17.6 43.91a5.11 5.11 0 0 0 1.11.13h4.11a4.94 4.94 0 0 0 1.1-.13 3.4 3.4 0 0 0-6.32 0z" fill="#f14848"/><rect class="cls-3" x="10.84" y="24.77" width="7.77" height="10.76" rx="3.89" ry="3.89"/><rect class="cls-5" x="14.05" y="27.71" width="3.12" height="5.1" rx="1.56" ry="1.56"/><rect class="cls-3" x="22.91" y="24.77" width="7.77" height="10.76" rx="3.89" ry="3.89" transform="rotate(180 26.795 30.145)"/><rect class="cls-5" x="24.3" y="27.71" width="3.12" height="5.1" rx="1.56" ry="1.56" transform="rotate(180 25.865 30.265)"/><rect x="19.12" y="24.09" width="3.29" height="12.17" rx="1.41" ry="1.41" fill="#ff9780"/><path d="M5.47 31.43l1.2-5a31.68 31.68 0 0 0 .9-7.51v-5.2h25.6l.26 5.19a31.77 31.77 0 0 0 1.09 6.85l1.55 5.67a15.62 15.62 0 0 0 .49-3.11l.44-7.24A16.27 16.27 0 0 0 20.77 3.84 16.27 16.27 0 0 0 4.53 21.07L5 28.28a15.33 15.33 0 0 0 .51 3.15z" fill="#f68f00"/><path d="M19.81.18H24a1.52 1.52 0 0 1 1.52 1.52v2.84h-7.23V1.69A1.52 1.52 0 0 1 19.81.18z" transform="rotate(4.96 21.848 2.408)" fill="#1caff5"/><path d="M37.8 13v9.77a1.36 1.36 0 0 1 0 .29h-3.92l-2.83-1.49a22.2 22.2 0 0 0-20.69 0L7.62 23H3.77a1.53 1.53 0 0 1 0-.3V13a4.65 4.65 0 0 1 2.32-4l9.73-5.7a9.91 9.91 0 0 1 9.91 0l9.75 5.63A4.63 4.63 0 0 1 37.8 13z" fill="#1898d5"/><path d="M4.65 23.58A3.47 3.47 0 0 1 1.72 22c-2.23-3.55 2.06-6.21 10.74-6.21s19.19 2.75 24.77 6.37c.78.51.81 1.44.06 1.44z" fill="#2b70c8"/><circle class="cls-11" cx="31.09" cy="35.44" r=".87"/><circle class="cls-11" cx="32.47" cy="37.42" r=".87"/><circle class="cls-11" cx="29.91" cy="37.42" r=".87"/><circle class="cls-11" cx="10.49" cy="35.44" r=".87"/><circle class="cls-11" cx="11.87" cy="37.42" r=".87"/><circle class="cls-11" cx="9.31" cy="37.42" r=".87"/></svg>