<svg viewBox="0 0 42 56" version="1.1" xmlns="http://www.w3.org/2000/svg"><g stroke="none" stroke-width="1" fill="none" fill-rule="evenodd"><g><g transform="translate(.262 .04)"><rect fill="#4B4B4B" x="24.614" y="9.917" width="6.202" height="42.378" rx="3.101"/><rect fill="#4B4B4B" x="29.974" y="9.917" width="6.202" height="42.378" rx="3.101"/><rect fill="#4B4B4B" x="35.142" y="9.917" width="6.202" height="42.378" rx="3.101"/><rect fill="#4B4B4B" x="24.806" y="4.134" width="16.538" height="19.638" rx="8.269"/><rect fill="#FF9600" x="14.47" y="0" width="7.235" height="3.76" rx="1.88"/><path d="M16.538 2.067h3.91c6.85 0 12.403 5.553 12.403 12.403H4.134c0-6.85 5.554-12.403 12.404-12.403z" fill="#FFC800"/><rect fill="#4B4B4B" x="2.735" y="10.919" width="32.135" height="20.512" rx="10.256"/><rect fill="#A46640" x="0" y="25.277" width="37.21" height="8.205" rx="4.102"/><path d="M18.802 8.868a12.146 12.146 0 0 1 11.881 9.62l2.684 12.628c1.59 7.48-3.185 14.832-10.665 16.422-.946.2-1.91.302-2.878.302H17.78c-7.647 0-13.845-6.199-13.845-13.845 0-.968.1-1.932.302-2.879L6.922 18.49a12.146 12.146 0 0 1 11.88-9.621z" fill="#A46640"/><path d="M15.726 39.274c.527.337 1.587 1.006 3.076 1.025 1.49.02 2.543-.649 3.077-.945" stroke="#FFF" stroke-width="4.923" fill="#FFF" stroke-linecap="round" stroke-linejoin="round"/><rect fill="#8A481F" x="17.093" y="25.277" width="3.419" height="9.572" rx="1.709"/><path d="M10.807 16.005a5.614 5.614 0 0 0 3.937 1.462l.414-.011M26.448 16.005a5.614 5.614 0 0 1-3.937 1.462l-.414-.011" stroke="#4B4B4B" stroke-width="3.077" stroke-linecap="round" stroke-linejoin="round"/><path d="M29.214 20.491c.48 0 .87.39.87.87v2.61a6.091 6.091 0 0 1-6.091 6.092h-2.611a.87.87 0 0 1-.87-.87v-2.61a6.091 6.091 0 0 1 6.091-6.092h2.61zM8.391 20.491a.87.87 0 0 0-.87.87v2.61a6.091 6.091 0 0 0 6.091 6.092h2.611c.48 0 .87-.39.87-.87v-2.61a6.091 6.091 0 0 0-6.091-6.092h-2.61z" fill="#FFF" fill-rule="nonzero"/><rect fill="#4B4B4B" x="21.537" y="22.542" width="4.102" height="6.154" rx="2.051"/><rect fill="#4B4B4B" x="11.965" y="22.542" width="4.102" height="6.154" rx="2.051"/><rect fill="#8A481F" x="16.409" y="30.747" width="4.102" height="4.102" rx="2.051"/><path d="M33.868 17.523c-2.782-3.642-8.67-6.153-15.484-6.153-6.654 0-12.425 2.395-15.283 5.899" stroke="#FF9600" stroke-width="5.128" stroke-linecap="round" stroke-linejoin="round"/><rect fill="#4B4B4B" transform="rotate(-15 26.665 31.43)" x="22.563" y="29.38" width="8.205" height="4.102" rx="2.051"/><rect fill="#4B4B4B" transform="rotate(15 10.94 31.43)" x="6.837" y="29.38" width="8.205" height="4.102" rx="2.051"/></g></g></g></svg>